PathFileType	4	(X/Y/Z)	/Users/itak/Documents/Research/Walk-IL/dataset/trc/00572_00009.trc
DataRate	CameraRate	NumFrames	NumMarkers	Units	OrigDataRate	OrigDataStartFrame	OrigNumFrames
100.000000	100.000000	4	53	mm	100.000000	128	513
Frame#	Time	RPSI			LPSI			L3			STRN			T10			C7			CLAV			RBAK			LBAK			LSHO			LUPA			LAEL			LAOL			LWTS			LWPS			LFRA			LIFD			LHPS			LHTS			RSHO			RUPA			RAEL			RAOL			RWTS			RWPS			RFRA			RHTS			RHPS			RBHD			LFHD			RFHD			LBHD			LHIP			RHIP			RASI			LASI			LKNE			LTHI			LANK			LTIP			LTOE			LMT1			LMT5			LHEE			RKNE			RTHI			RANK			RTIP			RTOE			RMT1			RMT5			RHEE			RIFD			
		X1	Y1	Z1	X2	Y2	Z2	X3	Y3	Z3	X4	Y4	Z4	X5	Y5	Z5	X6	Y6	Z6	X7	Y7	Z7	X8	Y8	Z8	X9	Y9	Z9	X10	Y10	Z10	X11	Y11	Z11	X12	Y12	Z12	X13	Y13	Z13	X14	Y14	Z14	X15	Y15	Z15	X16	Y16	Z16	X17	Y17	Z17	X18	Y18	Z18	X19	Y19	Z19	X20	Y20	Z20	X21	Y21	Z21	X22	Y22	Z22	X23	Y23	Z23	X24	Y24	Z24	X25	Y25	Z25	X26	Y26	Z26	X27	Y27	Z27	X28	Y28	Z28	X29	Y29	Z29	X30	Y30	Z30	X31	Y31	Z31	X32	Y32	Z32	X33	Y33	Z33	X34	Y34	Z34	X35	Y35	Z35	X36	Y36	Z36	X37	Y37	Z37	X38	Y38	Z38	X39	Y39	Z39	X40	Y40	Z40	X41	Y41	Z41	X42	Y42	Z42	X43	Y43	Z43	X44	Y44	Z44	X45	Y45	Z45	X46	Y46	Z46	X47	Y47	Z47	X48	Y48	Z48	X49	Y49	Z49	X50	Y50	Z50	X51	Y51	Z51	X52	Y52	Z52	X53	Y53	Z53	

129	1.28	-1100.1708984375	996.1951904296875	-140.987548828125	-1084.981567382812	1001.177307128906	-273.9346618652344	-1082.51123046875	1100.36328125	-214.7582550048828	-824.0612182617188	1262.732299804688	-205.0608978271484	-1074.340087890625	1225.803955078125	-218.6019744873047	-994.07373046875	1493.002075195312	-204.8164825439453	-830.4613037109375	1375.102416992188	-205.2089233398438	-1084.489501953125	1376.913818359375	-124.3458709716797	-1028.441040039062	1444.043579101562	-298.5660095214844	-924.62646484375	1457.032592773438	-376.0715942382812	-941.5443725585938	1331.43212890625	-455.5835876464844	-933.1991577148438	1108.648315429688	-476.3599548339844	-1026.126708984375	1106.66064453125	-437.431640625	-861.484130859375	863.7870483398438	-410.8724060058594	-896.739990234375	841.13037109375	-487.3819580078125	-914.0530395507812	1021.285583496094	-478.4384460449219	-878.4588012695312	689.025146484375	-407.3956909179688	-893.548095703125	780.984375	-477.1859741210938	-848.9410400390625	783.6971435546875	-426.2613830566406	-950.6866455078125	1450.1279296875	-45.97975540161133	-980.25244140625	1387.296508789062	19.91651916503906	-1019.441589355469	1100.84326171875	63.20811080932617	-1069.64794921875	1087.44189453125	26.46145629882812	-901.101806640625	867.9454345703125	54.91789245605469	-961.83935546875	853.9696044921875	110.9414367675781	-1016.375366210938	1045.276733398438	73.41091918945312	-886.2315673828125	774.5093994140625	76.77546691894531	-951.9297485351562	778.4566040039062	113.7550277709961	-900.60498046875	1664.762817382812	-137.57568359375	-722.2904663085938	1660.702026367188	-243.1908416748047	-763.9678955078125	1663.167358398438	-105.4608764648438	-846.0150146484375	1659.416625976562	-293.6766967773438	-957.120361328125	914.5258178710938	-396.7548828125	-980.74951171875	931.276123046875	-10.3628511428833	-894.7659301757812	958.600341796875	-69.45298767089844	-878.165283203125	935.498291015625	-342.8400268554688	-1002.284790039062	475.6436462402344	-324.826416015625	-972.943603515625	637.7211303710938	-363.3312683105469	-1163.953369140625	26.54522323608398	-303.7019653320312	-1109.62646484375	243.1908111572266	-321.9447021484375	-953.9053955078125	37.98797225952148	-240.85986328125	-1026.602294921875	41.62144088745117	-207.4024658203125	-1040.648559570312	31.43604469299316	-315.6956481933594	-1234.790161132812	30.64255142211914	-248.2548522949219	-786.5596923828125	527.7166748046875	-24.1680736541748	-901.0877075195312	795.3168334960938	-3.414807796478271	-842.0735473632812	49.71229934692383	-69.68411254882812	-770.8367309570312	379.3236083984375	-37.79330444335938	-625.5592651367188	85.75296783447266	-67.46926879882812	-677.6638793945312	71.88490295410156	-120.5264892578125	-719.9989013671875	66.98697662353516	-26.75307464599609	-884.9583740234375	35.34729385375977	-130.9443054199219	-913.6528930664062	695.9158325195312	57.34268951416016	
130	1.29	-1095.466552734375	994.7421875	-140.5264739990234	-1079.939331054688	999.9108276367188	-273.4022827148438	-1077.665771484375	1099.34130859375	-214.0667724609375	-818.9501953125	1261.315063476562	-203.6742401123047	-1069.21923828125	1224.735107421875	-217.7950897216797	-988.5247192382812	1491.813598632812	-203.6667633056641	-825.1587524414062	1373.6982421875	-203.7417755126953	-1079.282836914062	1375.827880859375	-123.4557266235352	-1022.788391113281	1442.99609375	-297.5324096679688	-918.7661743164062	1455.811767578125	-374.7716979980469	-935.566650390625	1330.245727539062	-454.3605041503906	-927.1507568359375	1107.484252929688	-475.1965637207031	-1020.20751953125	1105.429931640625	-436.5776977539062	-855.41357421875	862.6431274414062	-409.4800109863281	-890.4293212890625	839.980712890625	-486.0932922363281	-907.9348754882812	1020.111511230469	-477.2190856933594	-871.932861328125	688.1549682617188	-406.148681640625	-887.174560546875	779.8602294921875	-475.8838195800781	-842.6442260742188	782.6919555664062	-424.8816528320312	-945.5430297851562	1448.831787109375	-44.74378967285156	-975.3255004882812	1385.9873046875	21.04582023620605	-1015.257446289062	1099.657592773438	64.142578125	-1065.378295898438	1086.379516601562	27.26760292053223	-897.8829345703125	866.1929931640625	56.48291015625	-958.8427124023438	852.540771484375	112.2200393676758	-1012.322998046875	1044.077026367188	74.30482482910156	-883.4922485351562	772.6676025390625	78.36153411865234	-949.3194580078125	776.9929809570312	115.1418533325195	-894.8485107421875	1663.499389648438	-136.2020111083984	-716.3361206054688	1659.065185546875	-241.4669189453125	-758.2965698242188	1661.600463867188	-103.82275390625	-839.9512939453125	1658.049682617188	-292.1831359863281	-951.7662353515625	913.4338989257812	-395.9497375488281	-976.3629150390625	929.8705444335938	-9.875770568847656	-890.1881103515625	957.2371826171875	-68.68081665039062	-873.0667114257812	934.4175415039062	-341.9672241210938	-999.6430053710938	475.1130065917969	-324.346435546875	-969.1056518554688	636.8582153320312	-362.4931640625	-1163.981323242188	26.65913200378418	-303.6331787109375	-1108.430053710938	243.1552734375	-321.7021179199219	-953.8525390625	37.96383285522461	-240.8504486083984	-1026.507934570312	41.6060676574707	-207.5042266845703	-1040.6318359375	31.41583633422852	-315.762939453125	-1234.7734375	30.89767837524414	-248.1576690673828	-780.1251220703125	527.4567260742188	-22.77252578735352	-896.34326171875	794.4468994140625	-2.214252710342407	-824.9066772460938	48.5189323425293	-70.47709655761719	-761.4482421875	379.5749206542969	-36.66176605224609	-609.1412963867188	88.37287139892578	-65.26367950439453	-660.3298950195312	73.97728729248047	-119.1305236816406	-703.7880249023438	67.69505310058594	-25.88047027587891	-866.4093017578125	33.57699966430664	-132.7558898925781	-911.2310180664062	694.2178955078125	58.89347839355469	
131	1.3	-1090.592529296875	993.2421264648438	-139.9953155517578	-1074.745239257812	998.6129760742188	-272.7926025390625	-1072.666870117188	1098.25244140625	-213.2950744628906	-813.703857421875	1259.859008789062	-202.2120361328125	-1063.950561523438	1223.597534179688	-216.9070892333984	-982.868408203125	1490.570556640625	-202.4349060058594	-819.7503662109375	1372.248168945312	-202.1883850097656	-1073.956787109375	1374.666381835938	-122.4832992553711	-1017.025268554688	1441.89599609375	-296.4136047363281	-912.8035278320312	1454.546752929688	-373.391357421875	-929.456298828125	1329.012817382812	-453.0466003417969	-920.9421997070312	1106.267211914062	-473.937255859375	-1014.126525878906	1104.148559570312	-435.5979614257812	-849.2576904296875	861.411865234375	-408.0419921875	-884.0157470703125	838.7686157226562	-484.7770080566406	-901.68115234375	1018.8818359375	-475.9224548339844	-865.2681884765625	687.232421875	-404.9030456542969	-880.7188110351562	778.6757202148438	-474.5487670898438	-836.2086181640625	781.634521484375	-423.5032348632812	-940.2911376953125	1447.46337890625	-43.42606735229492	-970.2943725585938	1384.60498046875	22.24925804138184	-1010.963562011719	1098.41015625	65.14725494384766	-1061.006469726562	1085.246948242188	28.16142272949219	-894.4874877929688	864.4063720703125	58.0362548828125	-955.6640625	851.0517578125	113.5208129882812	-1008.169616699219	1042.801635742188	75.27694702148438	-880.5469970703125	770.8048095703125	79.92315673828125	-946.5026245117188	775.4720458984375	116.5304946899414	-889.009521484375	1662.191772460938	-134.7331390380859	-710.2855224609375	1657.411010742188	-239.6666564941406	-752.5286865234375	1660.008178710938	-102.1039505004883	-833.808837890625	1656.646484375	-290.6004333496094	-946.3190307617188	912.328369140625	-395.1300964355469	-971.8358764648438	928.3677368164062	-9.326522827148438	-885.3693237304688	955.8297119140625	-67.8778076171875	-867.8460693359375	933.2786865234375	-341.0649719238281	-996.902099609375	474.5523986816406	-323.8523864746094	-965.0186767578125	635.8347778320312	-361.5960998535156	-1164.01171875	26.78427886962891	-303.5565185546875	-1107.172607421875	243.1282958984375	-321.4638061523438	-953.798828125	37.94048309326172	-240.8444213867188	-1026.416137695312	41.59883880615234	-207.6046752929688	-1040.597045898438	31.399658203125	-315.8399353027344	-1234.734497070312	31.18679428100586	-248.0914459228516	-773.7030029296875	527.0223999023438	-21.40506935119629	-891.2974243164062	793.5695190429688	-0.9849647879600525	-807.9229125976562	47.42708587646484	-71.36160278320312	-752.1954345703125	379.7218933105469	-35.53780746459961	-592.998046875	90.89470672607422	-62.81258392333984	-643.23828125	76.03326416015625	-117.5134506225586	-687.9048461914062	68.40454864501953	-24.85570907592773	-848.0262451171875	32.02780532836914	-134.595458984375	-908.5916137695312	692.49169921875	60.42664337158203	
132	1.31	-1085.541870117188	991.7059326171875	-139.3854370117188	-1069.398803710938	997.2881469726562	-272.0968933105469	-1067.512573242188	1097.100219726562	-212.441650390625	-808.3215942382812	1258.368286132812	-200.6737670898438	-1058.531860351562	1222.39794921875	-215.9355773925781	-977.1069946289062	1489.280029296875	-201.1202087402344	-814.2293701171875	1370.758544921875	-200.5535583496094	-1068.512939453125	1373.433837890625	-121.4314422607422	-1011.152893066406	1440.746704101562	-295.2105712890625	-906.73828125	1453.24560546875	-371.9314270019531	-923.2141723632812	1327.738403320312	-451.6436767578125	-914.578369140625	1105.0029296875	-472.5794372558594	-1007.886169433594	1102.82568359375	-434.4967956542969	-843.0247802734375	860.1069946289062	-406.5574951171875	-877.5048217773438	837.5048828125	-483.4307861328125	-895.2925415039062	1017.606689453125	-474.5491027832031	-858.4820556640625	686.2523803710938	-403.6437072753906	-874.1854248046875	777.4383544921875	-473.177490234375	-829.6516723632812	780.51953125	-422.1110534667969	-934.9329223632812	1446.025390625	-42.02827453613281	-965.1642456054688	1383.153442382812	23.52689361572266	-1006.549743652344	1097.095336914062	66.21654510498047	-1056.527709960938	1084.0458984375	29.13451766967773	-890.9140014648438	862.5925903320312	59.58477020263672	-952.2979736328125	849.5059204101562	114.8447189331055	-1003.90771484375	1041.454345703125	76.31997680664062	-877.3967895507812	768.927978515625	81.47664642333984	-943.4727783203125	773.8944091796875	117.9207077026367	-883.0897827148438	1660.84521484375	-133.163818359375	-704.146240234375	1655.745361328125	-237.7808990478516	-746.6654663085938	1658.392578125	-100.3004989624023	-827.5923461914062	1655.2138671875	-288.9253234863281	-940.7890625	911.2139892578125	-394.2906188964844	-967.1482543945312	926.775390625	-8.723363876342773	-880.3216552734375	954.3705444335938	-67.02742004394531	-862.4978637695312	932.0835571289062	-340.1314697265625	-994.0416259765625	473.9512023925781	-323.3444519042969	-960.7135009765625	634.687255859375	-360.6410827636719	-1164.039428710938	26.92297172546387	-303.4701538085938	-1105.842529296875	243.1144104003906	-321.2309265136719	-953.7465209960938	37.91690063476562	-240.8401336669922	-1026.328369140625	41.60213088989258	-207.7009429931641	-1040.547241210938	31.3846435546875	-315.9229736328125	-1234.6689453125	31.52104759216309	-248.0624694824219	-767.3026733398438	526.4097900390625	-20.07396507263184	-886.0017700195312	792.6504516601562	0.2933451235294342	-791.16357421875	46.40582656860352	-72.351318359375	-743.1063232421875	379.7499084472656	-34.42426681518555	-577.1652221679688	93.21231842041016	-60.14461517333984	-626.4248046875	77.97152709960938	-115.6979370117188	-672.37255859375	69.04052734375	-23.70469856262207	-829.924560546875	30.73530769348145	-136.3873291015625	-905.7228393554688	690.7393188476562	61.94878005981445	
